<svg xmlns="http://www.w3.org/2000/svg" viewBox="0 0 48 48" width="48" height="48">
  <rect width="48" height="48" rx="10" fill="#1a0533"/>
  <path d="M24 14 C24 12 21 11 17 11 C13 11 10 12 10 14 L10 33 C10 31 13 30 17 30 C21 30 24 31 24 33 Z" fill="#ede6ff"/>
  <path d="M24 14 C24 12 27 11 31 11 C35 11 38 12 38 14 L38 33 C38 31 35 30 31 30 C27 30 24 31 24 33 Z" fill="#ede6ff"/>
  <path d="M24 14 C24 12 21 11 17 11 C13 11 10 12 10 14 L10 33 C10 31 13 30 17 30 C21 30 24 31 24 33 Z" fill="none" stroke="#7e14ff" stroke-width="1.6" stroke-linejoin="round"/>
  <path d="M24 14 C24 12 27 11 31 11 C35 11 38 12 38 14 L38 33 C38 31 35 30 31 30 C27 30 24 31 24 33 Z" fill="none" stroke="#7e14ff" stroke-width="1.6" stroke-linejoin="round"/>
  <line x1="24" y1="14" x2="24" y2="33" stroke="#863bff" stroke-width="1.6"/>
  <line x1="14" y1="16" x2="20" y2="15.4" stroke="#863bff" stroke-width="1.3" stroke-linecap="round" opacity="0.7"/>
  <line x1="14" y1="20" x2="20" y2="19.6" stroke="#863bff" stroke-width="1.3" stroke-linecap="round" opacity="0.7"/>
  <line x1="14" y1="24" x2="20" y2="23.8" stroke="#863bff" stroke-width="1.3" stroke-linecap="round" opacity="0.7"/>
  <line x1="28" y1="15.4" x2="34" y2="16" stroke="#863bff" stroke-width="1.3" stroke-linecap="round" opacity="0.7"/>
  <line x1="28" y1="19.6" x2="34" y2="20" stroke="#863bff" stroke-width="1.3" stroke-linecap="round" opacity="0.7"/>
  <line x1="28" y1="23.8" x2="34" y2="24" stroke="#863bff" stroke-width="1.3" stroke-linecap="round" opacity="0.7"/>
</svg>
